<svg xmlns="http://www.w3.org/2000/svg" viewBox="0 0 1600 600" role="img" aria-labelledby="title desc"><title id="title">SHABDIZ HORSE test advertisement</title><desc id="desc">SHABDIZ HORSE — Buy and sell horses with confidence.</desc><defs><linearGradient id="bg" x1="0" x2="1"><stop offset="0" stop-color="#07111f"/><stop offset="1" stop-color="#14253b"/></linearGradient><linearGradient id="gold" x1="0" x2="1"><stop offset="0" stop-color="#c99635"/><stop offset="1" stop-color="#f0c96a"/></linearGradient></defs><rect width="1600" height="600" rx="28" fill="url(#bg)"/><path d="M0 0h430c-90 170-105 310 0 600H0z" fill="#0d1b2d"/><path d="M430 0c-110 180-125 390 0 600h48c-105-200-90-400 0-600z" fill="url(#gold)"/><g fill="none" stroke="url(#gold)" stroke-width="7" opacity=".95"><path d="M170 420c35-80 30-160 5-220 65 45 105 95 125 160"/><path d="M300 210c-45 35-85 85-110 150"/><path d="M225 170c55 20 90 55 115 100"/></g><text x="570" y="220" fill="#f5f7fa" font-family="Georgia,serif" font-size="92" font-weight="700" letter-spacing="8">SHABDIZ</text><text x="785" y="285" fill="#e2b84f" font-family="Georgia,serif" font-size="38" letter-spacing="14">HORSE</text><line x1="570" y1="315" x2="1090" y2="315" stroke="#c99635" stroke-width="2"/><text x="570" y="385" fill="#fff" font-family="Arial,sans-serif" font-size="48" font-weight="700">BUY &amp; SELL HORSES</text><text x="570" y="440" fill="#e2b84f" font-family="Arial,sans-serif" font-size="52" font-weight="700">WITH CONFIDENCE</text><text x="570" y="490" fill="#b8c3d0" font-family="Arial,sans-serif" font-size="25">Trusted listings • Serious buyers • Global reach</text><rect x="1200" y="420" width="310" height="82" rx="18" fill="url(#gold)"/><text x="1355" y="472" text-anchor="middle" fill="#07111f" font-family="Arial,sans-serif" font-size="25" font-weight="700">JOIN SHABDIZ HORSE</text><text x="1355" y="535" text-anchor="middle" fill="#e2b84f" font-family="Arial,sans-serif" font-size="24">shabdizhorse.com</text></svg>