<svg xmlns="http://www.w3.org/2000/svg" viewBox="0 0 1200 630"><defs><linearGradient id="bg" x1="0" y1="0" x2="1" y2="1"><stop offset="0" stop-color="#07162C"/><stop offset="1" stop-color="#102B50"/></linearGradient><linearGradient id="gold" x1="0" y1="0" x2="1" y2="1"><stop offset="0" stop-color="#F7E1A1"/><stop offset="0.5" stop-color="#D4A437"/><stop offset="1" stop-color="#B88316"/></linearGradient></defs><rect width="1200" height="630" fill="url(#bg)"/><circle cx="1030" cy="80" r="320" fill="none" stroke="#D4A437" stroke-opacity=".16" stroke-width="2"/><circle cx="1030" cy="80" r="240" fill="none" stroke="#D4A437" stroke-opacity=".1" stroke-width="2"/><path d="M865 105c27 5 49 19 65 41 8 11 14 23 17 36-13-12-28-21-45-27-17-6-33-16-45-30-9-10-15-20-18-30 9 3 17 6 26 10z" fill="#fff"/><path d="M851 114c-24 7-44 20-59 39-15 18-22 40-22 64 0 14 3 28 10 41-1-25 5-47 19-65 14-18 34-31 58-38 17-5 31-15 43-29 7-9 12-17 15-27-20 5-43 9-64 15z" fill="#fff"/><path d="M862 118c9 7 17 15 23 25-3 26-13 49-29 68-19 23-44 40-74 50-6 2-12 4-18 5 4-9 5-18 3-27 22-7 40-18 56-34 15-15 25-33 31-54 4-12 6-23 8-33z" fill="url(#gold)"/><path d="M781 247c-13 14-22 30-26 48 17-8 32-19 44-32 9-10 16-20 21-32-15 3-28 8-39 16z" fill="#fff"/><path d="M762 229c-12 13-21 28-28 45 18-8 34-18 47-31 10-10 18-22 24-34-16 5-30 11-43 20z" fill="#fff"/><circle cx="899" cy="153" r="4.5" fill="#0B1E3A"/><path d="M763 141C791 99 835 84 878 91c31 5 58 20 79 44" fill="none" stroke="url(#gold)" stroke-width="14" stroke-linecap="round"/><text x="90" y="310" font-family="Georgia, 'Times New Roman', serif" font-size="112" font-weight="700" letter-spacing="6" fill="#fff">SHABDIZ</text><text x="96" y="370" font-family="Arial, Helvetica, sans-serif" font-size="30" font-weight="600" letter-spacing="7" fill="#D4A437">EQUINE MARKETPLACE</text><rect x="96" y="415" width="170" height="3" fill="#D4A437"/><text x="96" y="470" font-family="Arial, Helvetica, sans-serif" font-size="25" letter-spacing="4" fill="#DCE6F2">CONNECT · TRADE · BREED · GROW</text></svg>
